<?xml version="1.0" encoding="UTF-8"?>
<svg width="42px" height="35px" viewBox="0 0 42 35" version="1.1" xmlns="http://www.w3.org/2000/svg" xmlns:xlink="http://www.w3.org/1999/xlink">
    <!-- Generator: Sketch 51.3 (57544) - http://www.bohemiancoding.com/sketch -->
    <title>Group 6</title>
    <desc>Created with Sketch.</desc>
    <defs></defs>
    <g id="Page-1" stroke="none" stroke-width="1" fill="none" fill-rule="evenodd">
        <g id="IngramSpark-Create-an-Account" transform="translate(-886.000000, -308.000000)" stroke="#FFFFFF">
            <g id="Group-6" transform="translate(887.000000, 309.000000)">
                <g id="Group-5">
                    <g id="Group-4">
                        <circle id="Oval-2" stroke-width="1.5" cx="29.3426774" cy="24.0967757" r="9.09677574"></circle>
                        <path d="M27.1209988,27.5 C27.4005701,27.7473131 27.7070186,27.9381714 28.0403536,28.0725806 C28.3736886,28.2069899 28.7123949,28.2741935 29.0564827,28.2741935 C29.293043,28.2741935 29.5349761,28.244624 29.7822891,28.1854839 C30.0296022,28.1263438 30.2527182,28.0268824 30.451644,27.8870968 C30.6505697,27.7473111 30.8118584,27.5725817 30.9355149,27.3629032 C31.0591715,27.1532248 31.1209988,26.8924747 31.1209988,26.5806452 C31.1209988,26.2795684 31.051107,26.0295709 30.9113214,25.8306452 C30.7715357,25.6317194 30.5833656,25.4596781 30.3468053,25.3145161 C30.1102449,25.1693541 29.8306778,25.0430113 29.5080956,24.9354839 L28.4919665,24.5967742 C28.1478788,24.4892468 27.8037962,24.3602158 27.4597085,24.2096774 C27.1156207,24.059139 26.806484,23.8602163 26.5322891,23.6129032 C26.2580942,23.3655902 26.0349782,23.0618298 25.8629343,22.7016129 C25.6908904,22.341396 25.6048698,21.8924758 25.6048698,21.3548387 C25.6048698,20.7741906 25.7258363,20.2741956 25.967773,19.8548387 C26.2097097,19.4354818 26.5269108,19.088711 26.9193859,18.8145161 C27.311861,18.5403212 27.7554049,18.3360222 28.2500311,18.2016129 C28.7446572,18.0672036 29.2500285,18 29.7661601,18 C30.228528,18 30.6828245,18.0618273 31.1290633,18.1854839 C31.5753021,18.3091404 31.9597069,18.4946224 32.2822891,18.7419355 C32.4865912,18.8924739 32.6209985,19.0376337 32.6855149,19.1774194 C32.7500314,19.317205 32.7822891,19.4569885 32.7822891,19.5967742 C32.7822891,19.8440873 32.6989566,20.0537626 32.5322891,20.2258065 C32.3656216,20.3978503 32.1532582,20.483871 31.8951924,20.483871 C31.8091704,20.483871 31.7177735,20.4704302 31.6209988,20.4435484 C31.5242241,20.4166665 31.3898169,20.3440866 31.217773,20.2258065 C30.927449,20.0215044 30.6532582,19.8817208 30.3951924,19.8064516 C30.1371265,19.7311824 29.9005698,19.6935484 29.6855149,19.6935484 C29.4489546,19.6935484 29.2123978,19.723118 28.9758375,19.7822581 C28.7392772,19.8413981 28.5242256,19.9327951 28.3306762,20.0564516 C28.1371269,20.1801081 27.9785263,20.3413969 27.8548698,20.5403226 C27.7312132,20.7392483 27.6693859,20.9784932 27.6693859,21.2580645 C27.6693859,21.5161303 27.7231488,21.7365582 27.8306762,21.9193548 C27.9382036,22.1021515 28.0860516,22.2580639 28.2742246,22.3870968 C28.4623976,22.5161297 28.6908899,22.6290318 28.9597085,22.7258065 C29.228527,22.8225811 29.524223,22.9193544 29.8468053,23.016129 C30.2123985,23.1344092 30.5914269,23.2688165 30.983902,23.4193548 C31.3763771,23.5698932 31.7365886,23.768816 32.0645472,24.016129 C32.3925058,24.2634421 32.6613203,24.5752669 32.8709988,24.9516129 C33.0806773,25.3279589 33.1855149,25.7956961 33.1855149,26.3548387 C33.1855149,26.967745 33.0726128,27.5026859 32.8468053,27.9596774 C32.6209977,28.416669 32.3199254,28.7956974 31.9435794,29.0967742 C31.5672335,29.397851 31.1263777,29.6236552 30.6209988,29.7741935 C30.1156199,29.9247319 29.5833672,30 29.0242246,30 C28.4328238,30 27.8602489,29.9166675 27.3064827,29.75 C26.7527165,29.5833325 26.2822911,29.3279587 25.8951924,28.983871 C25.7123957,28.8333326 25.5914292,28.6854846 25.5322891,28.5403226 C25.473149,28.3951606 25.4435794,28.2634415 25.4435794,28.1451613 C25.4435794,27.8870955 25.5322882,27.6639794 25.7097085,27.4758065 C25.8871287,27.2876335 26.1156211,27.1935484 26.3951924,27.1935484 C26.5027198,27.1935484 26.6156219,27.2150535 26.733902,27.2580645 C26.8521822,27.3010755 26.9812132,27.3817198 27.1209988,27.5 Z" id="S" stroke-width="0.5" fill="#FFFFFF"></path>
                        <path d="M29.5,17.5 L29.5,30" id="Line-2" stroke-width="1.5" stroke-linecap="round" stroke-linejoin="round"></path>
                        <g id="Group-13" stroke-linejoin="round" stroke-width="2">
                            <path d="M19.6721311,23.6065574 C14.0596721,23.6065574 10.3127869,20.8590164 9.83606557,19.6478689 C9.83606557,18.6163934 9.82885246,11.147541 9.82885246,11.147541" id="Stroke-1" stroke-linecap="round"></path>
                            <path d="M30.1639344,11.147541 L30.1639344,14.4262295" id="Stroke-3" stroke-linecap="round"></path>
                            <path d="M1.96721311,8.52459016 L0.914754098,8.22360656 C0.367868852,8.03278689 0,7.5095082 0,6.92196721 L0,6.87344262 C0,6.26688525 0.39147541,5.73180328 0.962622951,5.55672131 L18.5901639,0.154098361 C19.2340984,-0.051147541 19.9377049,-0.051147541 20.5836066,0.154098361 L39.0216393,5.56459016 C39.6013115,5.73442623 40,6.27344262 40,6.88655738 C40,7.49180328 39.6111475,8.02491803 39.0419672,8.20196721 L20.4885246,13.9619672 C19.9363934,14.1390164 19.3331148,14.1390164 18.7796721,13.9619672 L5.74885246,9.76131148 L1.96721311,8.52459016 Z" id="Stroke-5" stroke-linecap="round"></path>
                            <path d="M19.4816393,5.66852459 L6.08360656,9.64754098 C5.20754098,9.87245902 4.58655738,10.7747541 4.5904918,11.817377 L4.57147541,20.327541" id="Stroke-7" stroke-linecap="round"></path>
                            <path d="M6.55737705,22.295082 C6.55737705,23.3816393 5.67672131,24.2622951 4.59016393,24.2622951 C3.50360656,24.2622951 2.62295082,23.3816393 2.62295082,22.295082 C2.62295082,21.2085246 3.50360656,20.3278689 4.59016393,20.3278689 C5.67672131,20.3278689 6.55737705,21.2085246 6.55737705,22.295082 Z" id="Stroke-9"></path>
                            <path d="M3.22583607,24.2622951 L1.21140984,30.4045902 C0.932721311,31.2544262 1.55501639,32.1311475 2.43501639,32.1311475 L6.59698361,32.1311475 C7.47763934,32.1311475 8.09927869,31.2544262 7.82059016,30.4045902 L5.80681967,24.2622951" id="Stroke-11"></path>
                        </g>
                    </g>
                </g>
            </g>
        </g>
    </g>
</svg>