<?xml version="1.0" encoding="UTF-8"?>
<svg width="40px" height="43px" viewBox="0 0 40 43" version="1.1" xmlns="http://www.w3.org/2000/svg" xmlns:xlink="http://www.w3.org/1999/xlink">
    <!-- Generator: Sketch 51.3 (57544) - http://www.bohemiancoding.com/sketch -->
    <title>Group 2</title>
    <desc>Created with Sketch.</desc>
    <defs>
        <polygon id="path-1" points="0.21945679 0.406137566 11.8243951 0.406137566 11.8243951 12.2193122 0.21945679 12.2193122"></polygon>
        <polygon id="path-3" points="0.0006 0.217544974 19.1946 0.217544974 19.1946 14.0740741 0.0006 14.0740741"></polygon>
        <polygon id="path-5" points="0.236276094 0.217544974 18.9792593 0.217544974 18.9792593 14.0740741 0.236276094 14.0740741"></polygon>
    </defs>
    <g id="Page-1" stroke="none" stroke-width="1" fill="none" fill-rule="evenodd">
        <g id="IngramSpark-Create-an-Account" transform="translate(-887.000000, -430.000000)">
            <g id="Group-2" transform="translate(887.000000, 430.000000)">
                <g id="Group-20">
                    <g id="Group-3" transform="translate(14.074074, 0.000000)">
                        <mask id="mask-2" fill="white">
                            <use xlink:href="#path-1"></use>
                        </mask>
                        <g id="Clip-2"></g>
                        <path d="M6.02291358,0.405132275 C2.81698765,0.405132275 0.21945679,3.05306878 0.21945679,6.31021164 C0.21945679,9.56936508 2.81698765,12.2193122 6.02291358,12.2193122 C9.22093827,12.2193122 11.8243951,9.56936508 11.8243951,6.31021164 C11.8243951,3.05306878 9.22093827,0.405132275 6.02291358,0.405132275 M6.02291358,2.41571429 C8.13254321,2.41571429 9.84908642,4.16291005 9.84908642,6.31021164 C9.84908642,8.45952381 8.13254321,10.2087302 6.02291358,10.2087302 C3.91328395,10.2087302 2.19674074,8.45952381 2.19674074,6.31021164 C2.19674074,4.16291005 3.91328395,2.41571429 6.02291358,2.41571429" id="Fill-1" fill="#FFFFFF" mask="url(#mask-2)"></path>
                    </g>
                    <path d="M14.3835521,11.8518519 C12.0819924,12.416758 10.3703704,14.4132757 10.3703704,16.8102577 L10.3703704,25.1851852 L29.6296296,25.1851852 L29.6296296,16.8102577 C29.6296296,14.4132757 27.9180076,12.416758 25.6144413,11.8518519 C24.0472938,12.9913372 22.108927,13.6742546 20,13.6742546 C17.891073,13.6742546 15.9506996,12.9913372 14.3835521,11.8518519 M14.114669,14.0128114 C15.8925085,15.0613701 17.9051191,15.6088648 20,15.6088648 C22.0948809,15.6088648 24.1074915,15.0613701 25.8813179,14.0128114 C26.9367847,14.5603061 27.6230388,15.6243417 27.6230388,16.8102577 L27.6230388,23.250575 L12.3769612,23.250575 L12.3769612,16.8102577 C12.3769612,15.6243417 13.0632153,14.5603061 14.114669,14.0128114" id="Fill-4" fill="#FFFFFF"></path>
                    <path d="M14.0740741,22.962963 C14.0740741,25.4172367 12.08593,27.4074074 9.63165628,27.4074074 C7.17535593,27.4074074 5.18518519,25.4172367 5.18518519,22.962963 C5.18518519,20.5086893 7.17535593,18.5185185 9.63165628,18.5185185 C12.08593,18.5185185 14.0740741,20.5086893 14.0740741,22.962963" id="Fill-6" fill="#4EA2E1"></path>
                    <path d="M34.8148148,22.962963 C34.8148148,25.4172367 32.8250977,27.4074074 30.3713835,27.4074074 C27.9176692,27.4074074 25.9259259,25.4172367 25.9259259,22.962963 C25.9259259,20.5086893 27.9176692,18.5185185 30.3713835,18.5185185 C32.8250977,18.5185185 34.8148148,20.5086893 34.8148148,22.962963" id="Fill-8" fill="#4EA2E1"></path>
                    <path d="M9.6306383,17.037037 C6.35650118,17.037037 3.7037037,19.693417 3.7037037,22.960946 C3.7037037,26.2284749 6.35650118,28.8888889 9.6306383,28.8888889 C12.8967061,28.8888889 15.5555556,26.2284749 15.5555556,22.960946 C15.5555556,19.693417 12.8967061,17.037037 9.6306383,17.037037 M9.6306383,19.0540302 C11.7831363,19.0540302 13.5382191,20.8067973 13.5382191,22.960946 C13.5382191,25.1171117 11.7831363,26.8718957 9.6306383,26.8718957 C7.47612293,26.8718957 5.72305753,25.1171117 5.72305753,22.960946 C5.72305753,20.8067973 7.47612293,19.0540302 9.6306383,19.0540302" id="Fill-10" fill="#FFFFFF"></path>
                    <g id="Group-14" transform="translate(0.000000, 28.148148)">
                        <mask id="mask-4" fill="white">
                            <use xlink:href="#path-3"></use>
                        </mask>
                        <g id="Clip-13"></g>
                        <path d="M4.0006,0.217544974 C1.7066,0.804634921 0.0006,2.87955556 0.0006,5.37066667 L0.0006,14.0744762 L19.1946,14.0744762 L19.1946,5.37066667 C19.1946,2.87955556 17.4886,0.804634921 15.1946,0.217544974 C13.6326,1.40177778 11.7006,2.11352381 9.5986,2.11352381 C7.4966,2.11352381 5.5606,1.40177778 4.0006,0.217544974 M3.7326,2.46336508 C5.5046,3.55310053 7.5106,4.12410582 9.5986,4.12410582 C11.6846,4.12410582 13.6926,3.55310053 15.4606,2.46336508 C16.5126,3.03235979 17.1946,4.13817989 17.1946,5.37066667 L17.1946,12.0638942 L2.0006,12.0638942 L2.0006,5.37066667 C2.0006,4.13817989 2.6846,3.03235979 3.7326,2.46336508" id="Fill-12" fill="#FFFFFF" mask="url(#mask-4)"></path>
                    </g>
                    <path d="M30.3693617,17.037037 C27.0972419,17.037037 24.4444444,19.693417 24.4444444,22.960946 C24.4444444,26.2284749 27.0972419,28.8888889 30.3693617,28.8888889 C33.6354295,28.8888889 36.2962963,26.2284749 36.2962963,22.960946 C36.2962963,19.693417 33.6354295,17.037037 30.3693617,17.037037 M30.3693617,19.0540302 C32.5238771,19.0540302 34.2769425,20.8067973 34.2769425,22.960946 C34.2769425,25.1171117 32.5238771,26.8718957 30.3693617,26.8718957 C28.2148463,26.8718957 26.4617809,25.1171117 26.4617809,22.960946 C26.4617809,20.8067973 28.2148463,19.0540302 30.3693617,19.0540302" id="Fill-15" fill="#FFFFFF"></path>
                    <g id="Group-19" transform="translate(20.740741, 28.148148)">
                        <mask id="mask-6" fill="white">
                            <use xlink:href="#path-5"></use>
                        </mask>
                        <g id="Clip-18"></g>
                        <path d="M4.14395286,0.217544974 C1.90206734,0.804634921 0.236276094,2.87955556 0.236276094,5.37066667 L0.236276094,14.0744762 L18.9798451,14.0744762 L18.9798451,5.37066667 C18.9798451,2.87955556 17.3140539,0.804634921 15.0741212,0.217544974 C13.5469832,1.40177778 11.6605185,2.11352381 9.60806061,2.11352381 C7.55560269,2.11352381 5.66718519,1.40177778 4.14395286,0.217544974 M3.88226936,2.46336508 C5.61055219,3.55310053 7.57122559,4.12410582 9.60806061,4.12410582 C11.6468485,4.12410582 13.605569,3.55310053 15.3338519,2.46336508 C16.3591044,3.03235979 17.0269832,4.13817989 17.0269832,5.37066667 L17.0269832,12.0638942 L2.18913805,12.0638942 L2.18913805,5.37066667 C2.18913805,4.13817989 2.85701684,3.03235979 3.88226936,2.46336508" id="Fill-17" fill="#FFFFFF" mask="url(#mask-6)"></path>
                    </g>
                </g>
            </g>
        </g>
    </g>
</svg>